<?xml version="1.0" encoding="utf-8"?>
<!-- Generator: Adobe Illustrator 28.3.0, SVG Export Plug-In . SVG Version: 6.00 Build 0)  -->
<svg version="1.1" id="Layer_1" xmlns="http://www.w3.org/2000/svg" xmlns:xlink="http://www.w3.org/1999/xlink" x="0px" y="0px"
	 viewBox="0 0 85 85" style="enable-background:new 0 0 85 85;" xml:space="preserve">
<style type="text/css">
	.st0{fill:#FFFFFF;}
	.st1{fill:#52AE32;}
	.st2{fill:#F59C00;}
	.st3{fill:#BE1C33;}
	.st4{fill:#0056A4;}
</style>
<g>
	<polygon class="st0" points="59.9,23.7 50.5,23.7 42.6,35.5 34.7,23.7 25.3,23.7 37.9,42.5 25.3,61.4 34.7,61.4 42.6,49.6 
		50.4,61.4 59.8,61.4 47.3,42.5 	"/>
	<polygon points="51.6,59.2 55.8,59.2 44.7,42.5 55.8,25.8 51.6,25.8 42.6,39.4 33.5,25.8 29.3,25.8 40.5,42.5 29.3,59.2 33.6,59.2 
		42.6,45.7 	"/>
	<polygon class="st1" points="0,39 0,46.3 18.7,33.8 18.7,33.8 13.2,30.1 	"/>
	<polygon class="st2" points="66.3,51.1 66.3,51.1 71.8,54.8 85,46 85,38.6 	"/>
	<polygon class="st3" points="66.3,33.5 66.3,33.5 79.5,42.3 85,38.6 85,38.6 71.8,29.8 	"/>
	<polygon class="st1" points="33.9,66.3 30.2,71.8 39,85 46.4,85 33.9,66.3 	"/>
	<polygon class="st2" points="38.7,0 51.2,18.7 51.2,18.7 54.8,13.2 46,0 	"/>
	<polygon class="st3" points="38.6,0 29.8,13.2 33.5,18.7 33.5,18.7 42.3,5.5 38.7,0 	"/>
	<polygon class="st4" points="0,46.3 0,46.4 13.2,55.2 18.7,51.5 18.7,51.5 5.5,42.7 	"/>
	<polygon class="st4" points="51.5,66.3 51.5,66.3 42.7,79.5 46.4,85 46.4,85 55.2,71.8 	"/>
</g>
</svg>
