<?xml version="1.0" encoding="utf-8"?>
<!-- Generator: Adobe Illustrator 28.3.0, SVG Export Plug-In . SVG Version: 6.00 Build 0)  -->
<svg version="1.1" id="Layer_1" xmlns="http://www.w3.org/2000/svg" xmlns:xlink="http://www.w3.org/1999/xlink" x="0px" y="0px"
	 viewBox="0 0 226.8 72.3" style="enable-background:new 0 0 226.8 72.3;" xml:space="preserve">
<style type="text/css">
	.st0{fill:#FFFFFF;}
	.st1{fill:#0061AF;}
	.st2{fill:#50B848;}
	.st3{fill:#F99D1C;}
	.st4{fill:#C02640;}
</style>
<polygon class="st0" points="90.1,50.7 94.3,50.7 101.8,39.4 109.4,50.7 113.6,50.7 104,36.2 113.6,21.7 109.4,21.7 101.8,33 
	94.3,21.7 90.1,21.7 99.7,36.2 "/>
<path class="st0" d="M4,21.8v25.6h12v3.2H0V21.8H4z"/>
<path class="st0" d="M31.9,51.1c-2.2,0-4.3-0.4-6-1.2c-1.8-0.8-3.2-1.9-4.4-3.2c-1.2-1.4-2.1-2.9-2.7-4.8c-0.6-1.8-0.9-3.7-0.9-5.7
	c0-2,0.3-3.9,0.9-5.7c0.6-1.8,1.5-3.4,2.7-4.8c1.2-1.4,2.7-2.4,4.4-3.2c1.8-0.8,3.8-1.2,6-1.2c2.3,0,4.3,0.4,6,1.2
	c1.8,0.8,3.2,1.9,4.4,3.2c1.2,1.4,2.1,2.9,2.7,4.8c0.6,1.8,0.9,3.7,0.9,5.7c0,2-0.3,3.9-0.9,5.7c-0.6,1.8-1.5,3.4-2.7,4.8
	c-1.2,1.4-2.7,2.4-4.4,3.2C36.1,50.7,34.1,51.1,31.9,51.1z M31.9,47.9c1.6,0,3.1-0.3,4.4-0.9c1.3-0.6,2.3-1.4,3.2-2.5
	c0.8-1.1,1.5-2.3,1.9-3.7c0.4-1.4,0.6-2.9,0.6-4.6c0-1.6-0.2-3.1-0.6-4.6c-0.4-1.4-1.1-2.7-1.9-3.7c-0.8-1.1-1.9-1.9-3.2-2.5
	c-1.3-0.6-2.7-0.9-4.4-0.9c-1.6,0-3.1,0.3-4.4,0.9c-1.3,0.6-2.3,1.5-3.2,2.5c-0.8,1.1-1.5,2.3-1.9,3.7c-0.4,1.4-0.6,2.9-0.6,4.6
	c0,1.6,0.2,3.1,0.6,4.6c0.4,1.4,1.1,2.7,1.9,3.7c0.8,1.1,1.9,1.9,3.2,2.5C28.8,47.6,30.2,47.9,31.9,47.9z"/>
<path class="st0" d="M65.2,21.3c1.6,0,3.2,0.1,4.6,0.4c1.5,0.3,2.8,0.7,4,1.3l-0.6,3.2c-1.2-0.5-2.5-0.9-3.9-1.2
	c-1.3-0.3-2.7-0.4-4-0.4c-3.6,0-6.4,1-8.4,3.1c-2,2.1-3.1,5-3.1,8.9c0,3.7,1,6.5,2.9,8.5c1.9,2,4.8,3,8.7,3c0.9,0,1.9-0.1,2.8-0.2
	c0.9-0.1,1.7-0.3,2.4-0.5v-9.4h3.6v11.6c-1.1,0.5-2.5,0.9-4.2,1.2c-1.7,0.3-3.4,0.5-5.1,0.5c-2.4,0-4.5-0.4-6.4-1.1
	c-1.9-0.7-3.5-1.7-4.8-3c-1.3-1.3-2.3-2.8-3-4.6c-0.7-1.8-1-3.8-1-5.9c0-2.3,0.4-4.3,1.1-6.2c0.7-1.9,1.7-3.5,3.1-4.8
	c1.3-1.3,2.9-2.4,4.8-3.1C60.6,21.7,62.8,21.3,65.2,21.3z"/>
<path class="st0" d="M84.8,50.6h-4V21.8h4V50.6z"/>
<path class="st0" d="M117.8,50.6V21.8H134v3.2h-12.2v9.9h11.7v3.2h-11.7v12.5H117.8z"/>
<path class="st0" d="M181.2,50.6h-4.1l-2.6-7h-13.5l-2.6,7h-4.1l11.5-28.8h3.9L181.2,50.6z M162.3,40.5h11.1l-5.5-15L162.3,40.5z"/>
<path class="st0" d="M200.4,43.1c0,1.2-0.3,2.4-0.8,3.3c-0.5,1-1.3,1.8-2.2,2.5c-0.9,0.7-2,1.2-3.2,1.6c-1.2,0.4-2.5,0.6-4,0.6
	c-1.4,0-2.8-0.1-4.3-0.4c-1.5-0.3-2.8-0.7-4-1.3l0.8-3.2c1.1,0.5,2.2,0.9,3.5,1.2c1.3,0.3,2.6,0.5,3.9,0.5c1.9,0,3.4-0.4,4.5-1.2
	c1.2-0.8,1.7-1.9,1.7-3.4c0-0.8-0.2-1.6-0.5-2.1c-0.3-0.6-0.8-1.1-1.4-1.6c-0.6-0.5-1.2-0.9-2-1.3c-0.8-0.4-1.6-0.8-2.4-1.2
	c-1-0.5-1.9-0.9-2.8-1.4c-0.9-0.5-1.7-1.1-2.4-1.7c-0.7-0.6-1.2-1.4-1.7-2.2c-0.4-0.8-0.6-1.8-0.6-2.9c0-1.2,0.2-2.3,0.7-3.3
	c0.4-1,1.1-1.7,1.9-2.4c0.8-0.6,1.8-1.1,2.9-1.4c1.1-0.3,2.4-0.5,3.7-0.5c1.4,0,2.7,0.2,4,0.5c1.3,0.3,2.5,0.7,3.4,1.3l-0.7,3.2
	c-0.9-0.5-2-0.9-3.2-1.2c-1.2-0.3-2.4-0.5-3.6-0.5c-3.5,0-5.2,1.4-5.2,4.1c0,0.6,0.1,1.1,0.3,1.6c0.2,0.4,0.5,0.9,0.8,1.3
	c0.4,0.4,0.9,0.8,1.6,1.1c0.6,0.4,1.4,0.8,2.4,1.2c0.9,0.5,1.9,1,2.9,1.5c1,0.5,2,1.2,2.9,1.9c0.9,0.7,1.6,1.6,2.2,2.6
	C200.1,40.7,200.4,41.8,200.4,43.1z"/>
<path class="st0" d="M222.8,50.6V37.7H208v12.9h-4V21.8h4v12.5h14.8V21.8h4v28.8H222.8z"/>
<polygon class="st1" points="109.5,56.3 109.5,56.3 98.8,72.3 105.1,72.3 112.6,61 "/>
<polygon class="st2" points="94.5,56.3 94.5,56.3 105.1,72.3 98.8,72.3 91.3,61 "/>
<polygon class="st3" points="109.1,15.9 109.1,15.9 98.5,0 104.8,0 112.3,11.3 "/>
<polygon class="st4" points="98.5,0 98.5,0 91,11.3 94.1,15.9 94.2,15.9 101.6,4.7 "/>
<polygon class="st0" points="152.9,47.4 141.8,47.4 141.8,21.8 137.8,21.8 137.8,50.6 152.9,50.6 "/>
</svg>
